name Run_40002_IK.mot
datacolumns 164
datarows 4
range 1.54 1.57
endheader
time	         pelvis_tilt	         pelvis_list	     pelvis_rotation	           pelvis_tx	           pelvis_ty	           pelvis_tz	       hip_flexion_r	     hip_adduction_r	      hip_rotation_r	        knee_angle_r	       ankle_angle_r	       hip_flexion_l	     hip_adduction_l	      hip_rotation_l	        knee_angle_l	       ankle_angle_l	    lumbar_extension	      lumbar_bending	     lumbar_rotation	          arm_flex_r	           arm_add_r	           arm_rot_r	        elbow_flex_r	           pro_sup_r	          arm_flex_l	           arm_add_l	           arm_rot_l	        elbow_flex_l	           pro_sup_l	    subtalar_angle_r	         mtp_angle_r	    subtalar_angle_l	         mtp_angle_l	        wrist_flex_r	         wrist_dev_r	        wrist_flex_l	         wrist_dev_l	             LASI_tx	             LASI_ty	             LASI_tz	             RASI_tx	             RASI_ty	             RASI_tz	             LPSI_tx	             LPSI_ty	             LPSI_tz	             RPSI_tx	             RPSI_ty	             RPSI_tz	             RTH1_tx	             RTH1_ty	             RTH1_tz	             RTH2_tx	             RTH2_ty	             RTH2_tz	             RTH3_tx	             RTH3_ty	             RTH3_tz	             LTH1_tx	             LTH1_ty	             LTH1_tz	             LTH2_tx	             LTH2_ty	             LTH2_tz	             LTH3_tx	             LTH3_ty	             LTH3_tz	             RTB1_tx	             RTB1_ty	             RTB1_tz	             RTB2_tx	             RTB2_ty	             RTB2_tz	             RTB3_tx	             RTB3_ty	             RTB3_tz	             LTB1_tx	             LTB1_ty	             LTB1_tz	             LTB2_tx	             LTB2_ty	             LTB2_tz	             LTB3_tx	             LTB3_ty	             LTB3_tz	             RCAL_tx	             RCAL_ty	             RCAL_tz	             RTOE_tx	             RTOE_ty	             RTOE_tz	             RMT5_tx	             RMT5_ty	             RMT5_tz	             LCAL_tx	             LCAL_ty	             LCAL_tz	             LTOE_tx	             LTOE_ty	             LTOE_tz	             LMT5_tx	             LMT5_ty	             LMT5_tz	             LACR_tx	             LACR_ty	             LACR_tz	             RACR_tx	             RACR_ty	             RACR_tz	             CLAV_tx	             CLAV_ty	             CLAV_tz	               C7_tx	               C7_ty	               C7_tz	             RUA1_tx	             RUA1_ty	             RUA1_tz	             RUA2_tx	             RUA2_ty	             RUA2_tz	             RUA3_tx	             RUA3_ty	             RUA3_tz	             RLEL_tx	             RLEL_ty	             RLEL_tz	             RMEL_tx	             RMEL_ty	             RMEL_tz	             LUA1_tx	             LUA1_ty	             LUA1_tz	             LUA2_tx	             LUA2_ty	             LUA2_tz	             LUA3_tx	             LUA3_ty	             LUA3_tz	             LLEL_tx	             LLEL_ty	             LLEL_tz	             LMEL_tx	             LMEL_ty	             LMEL_tz	      RFAsuperior_tx	      RFAsuperior_ty	      RFAsuperior_tz	        RFAradius_tx	        RFAradius_ty	        RFAradius_tz	          RFAulna_tx	          RFAulna_ty	          RFAulna_tz	      LFAsuperior_tx	      LFAsuperior_ty	      LFAsuperior_tz	        LFAradius_tx	        LFAradius_ty	        LFAradius_tz	          LFAulna_tx	          LFAulna_ty	          LFAulna_tz	
1.54	        -13.02395384	         -0.60894634	         -2.01929077	          0.99355957	          1.04166947	         -0.35201301	         34.11482707	          3.93155148	          3.38350986	         -7.03647252	          1.86694802	         -5.08645445	          6.21268707	          3.93877193	        -53.58304437	        -20.05671410	          3.21965939	          4.91382166	         -9.43262916	        -50.33509573	        -20.85426369	        -19.40978819	        114.14565221	        107.75675965	        -30.03310863	        -14.05698971	         -5.83053832	        133.71823858	         97.12755526	          0.00000000	          0.00000000	          0.00000000	          0.00000000	          0.00000000	          0.00000000	          0.00000000	          0.00000000	          1.01587493	          1.07915140	         -0.50246844	          0.99800346	          1.08429902	         -0.22320065	          0.86408980	          1.13847497	         -0.41877050	          0.84734702	          1.13732522	         -0.30525590	          0.93753288	          0.96935318	         -0.16807972	          0.93650742	          0.81296165	         -0.19340942	          1.02773709	          0.68336065	         -0.19979018	          0.94495485	          0.93301617	         -0.51798642	          0.81537943	          0.82003758	         -0.48003548	          0.81515562	          0.67486221	         -0.46492484	          1.15754361	          0.45985869	         -0.27202939	          1.08905511	          0.39421291	         -0.20847632	          1.17436019	          0.27318165	         -0.29348420	          0.69417184	          0.48014134	         -0.39663475	          0.56401287	          0.51451653	         -0.45812400	          0.48194218	          0.42362579	         -0.40299364	          1.09529117	          0.10898983	         -0.29607838	          1.32157285	          0.17923157	         -0.34477144	          1.30257790	          0.12035706	         -0.25443391	          0.33926123	          0.50389483	         -0.40435852	          0.32580404	          0.27382355	         -0.34836408	          0.27962570	          0.29937400	         -0.44712160	          1.00266255	          1.57896122	         -0.48345670	          0.96826652	          1.55264257	         -0.17018974	          1.04115739	          1.51980870	         -0.28901852	          0.92549836	          1.58702602	         -0.33755600	          0.82673676	          1.50783824	         -0.14158763	          0.83710298	          1.44451829	         -0.09269576	          0.73592257	          1.41120939	         -0.07611306	          0.67865343	          1.36525768	         -0.06157353	          0.69212902	          1.33113678	         -0.14583314	          0.91688848	          1.48891627	         -0.56106707	          0.95026512	          1.41653761	         -0.58704928	          0.88294882	          1.35568037	         -0.63071277	          0.87143816	          1.28855610	         -0.65578048	          0.83631969	          1.26346243	         -0.57415887	          0.75174131	          1.28705673	         -0.04122070	          0.90553156	          1.20762786	         -0.09624410	          0.86326115	          1.16820708	         -0.05833594	          0.94359816	          1.25686087	         -0.62660848	          1.07308138	          1.30912364	         -0.50000067	          1.08893427	          1.24099567	         -0.51918418	
1.55	        -12.89323405	         -0.92828705	         -1.97808269	          0.99220913	          1.03606826	         -0.35127762	         33.48723041	          4.42055701	          2.25093109	         -6.97075476	          2.24550812	         -2.72660660	          5.18647001	          2.37048283	        -60.62986265	        -18.39793746	          2.86855816	          5.33376546	         -8.92724283	        -49.30042065	        -21.05791778	        -19.16048273	        114.23359170	        107.82498419	        -30.31423105	        -14.28131321	         -5.36968501	        131.98936611	         98.33195284	          0.00000000	          0.00000000	          0.00000000	          0.00000000	          0.00000000	          0.00000000	          0.00000000	          0.00000000	          1.01420471	          1.07309835	         -0.50218439	          0.99646571	          1.07922422	         -0.22335036	          0.86241948	          1.13259985	         -0.41835257	          0.84575578	          1.13181738	         -0.30514852	          0.93459150	          0.96278514	         -0.16817235	          0.93280472	          0.80652726	         -0.19293713	          1.02370341	          0.67606857	         -0.20063990	          0.94463458	          0.92810907	         -0.51803666	          0.81975846	          0.81075111	         -0.47956886	          0.82420558	          0.66599302	         -0.46671619	          1.15116026	          0.45195967	         -0.27340913	          1.08179735	          0.38602654	         -0.21097242	          1.16699843	          0.26527463	         -0.29612968	          0.70423712	          0.47482254	         -0.40013339	          0.57595807	          0.52076758	         -0.45845662	          0.48816662	          0.43454516	         -0.40594727	          1.08713934	          0.10103947	         -0.30171965	          1.31454501	          0.17276783	         -0.34492960	          1.29368549	          0.11075995	         -0.25689326	          0.35111180	          0.52544188	         -0.39994507	          0.32397421	          0.29310999	         -0.36096751	          0.27959923	          0.32887325	         -0.45731020	          1.00100405	          1.57383116	         -0.48258286	          0.96951395	          1.54625681	         -0.16925883	          1.04134673	          1.51398965	         -0.28878632	          0.92488854	          1.58188204	         -0.33637403	          0.82848057	          1.50049537	         -0.13783904	          0.84011046	          1.43637358	         -0.09027554	          0.73994322	          1.40124109	         -0.07204903	          0.68337569	          1.35472820	         -0.05702177	          0.69615930	          1.32106099	         -0.14149596	          0.91392346	          1.48486982	         -0.55971390	          0.94727883	          1.41222597	         -0.58640432	          0.87966362	          1.35221302	         -0.63021526	          0.86750385	          1.28537205	         -0.65515737	          0.83115727	          1.26016957	         -0.57389840	          0.75794472	          1.27779900	         -0.03785529	          0.91209225	          1.20059822	         -0.09500946	          0.87090152	          1.16066243	         -0.05645455	          0.93855765	          1.25036299	         -0.62720171	          1.07024019	          1.29517545	         -0.49942370	          1.08390609	          1.22717577	         -0.52141900	
1.56	        -12.83621487	         -1.12494272	         -1.86608572	          0.99050446	          1.02944095	         -0.35062898	         33.17416331	          4.68763987	          0.61715328	         -8.10217468	          1.97625422	         -0.17775481	          4.18905507	          1.14279872	        -67.46772994	        -16.26537527	          2.61044668	          5.59459446	         -8.37117533	        -48.06694696	        -21.32811177	        -18.77908595	        114.10344084	        107.79309896	        -30.59259603	        -14.53452231	         -4.92315026	        130.05935876	         99.69939174	          0.00000000	          0.00000000	          0.00000000	          0.00000000	          0.00000000	          0.00000000	          0.00000000	          0.00000000	          1.01213731	          1.06642366	         -0.50159630	          0.99479860	          1.07271805	         -0.22330004	          0.86035192	          1.12610313	         -0.41763060	          0.84422349	          1.12494844	         -0.30468159	          0.93109104	          0.95541376	         -0.16746206	          0.92909219	          0.79894348	         -0.19432097	          1.01969801	          0.66847435	         -0.20286630	          0.94413972	          0.92263632	         -0.51829086	          0.82404874	          0.80086177	         -0.47866889	          0.83402743	          0.65653925	         -0.46929544	          1.14346987	          0.44187287	         -0.27448838	          1.07229271	          0.37691779	         -0.21287959	          1.15598097	          0.25487784	         -0.29774261	          0.71602924	          0.46903336	         -0.40471366	          0.59048968	          0.52595249	         -0.45914362	          0.49762041	          0.44406879	         -0.40913124	          1.07252571	          0.09432655	         -0.30616537	          1.30251279	          0.15959622	         -0.34371454	          1.27744298	          0.09634037	         -0.25734315	          0.36580776	          0.54385386	         -0.39446572	          0.32774236	          0.31061056	         -0.37375144	          0.28586784	          0.35620755	         -0.46728833	          0.99883870	          1.56759108	         -0.48196220	          0.97087482	          1.53878977	         -0.16823747	          1.04140640	          1.50727976	         -0.28859599	          0.92415706	          1.57565784	         -0.33524162	          0.83040210	          1.49156404	         -0.13358819	          0.84385150	          1.42665180	         -0.08739395	          0.74481350	          1.38952867	         -0.06724899	          0.68908499	          1.34252767	         -0.05154722	          0.70086593	          1.30933897	         -0.13616983	          0.91033744	          1.47963443	         -0.55832296	          0.94352257	          1.40673937	         -0.58590195	          0.87553648	          1.34758929	         -0.62967529	          0.86264237	          1.28105296	         -0.65436492	          0.82547931	          1.25587846	         -0.57347666	          0.76503606	          1.26675234	         -0.03381908	          0.91943973	          1.19194038	         -0.09353767	          0.87945483	          1.15144240	         -0.05429426	          0.93245235	          1.24274344	         -0.62786229	          1.06640503	          1.27933937	         -0.49927730	          1.07781441	          1.21171575	         -0.52434653	
1.57	        -12.78303154	         -1.27301598	         -1.67261672	          0.98861076	          1.02199428	         -0.35035761	         33.04453712	          4.75651840	         -1.58211508	        -10.35345372	          0.79765185	          2.46011094	          3.21933184	          0.23855927	        -74.01020776	        -13.59515318	          2.37567731	          5.81715147	         -7.74837660	        -46.69555781	        -21.68332603	        -18.33938943	        113.77567748	        107.65642860	        -30.81005229	        -14.78304819	         -4.42124760	        127.86494134	        101.06369949	          0.00000000	          0.00000000	          0.00000000	          0.00000000	          0.00000000	          0.00000000	          0.00000000	          0.00000000	          1.00970918	          1.05906788	         -0.50106161	          0.99329410	          1.06499342	         -0.22338788	          0.85792364	          1.11892534	         -0.41696202	          0.84265827	          1.11680082	         -0.30402785	          0.92771274	          0.94707665	         -0.16702623	          0.92498929	          0.79048400	         -0.19735225	          1.01528336	          0.66024961	         -0.20558435	          0.94379328	          0.91653979	         -0.51873494	          0.82841737	          0.79042798	         -0.47753243	          0.84455692	          0.64654646	         -0.47248215	          1.13471200	          0.42985230	         -0.27504815	          1.06042192	          0.36697802	         -0.21475572	          1.14144293	          0.24259503	         -0.29936956	          0.72943444	          0.46277813	         -0.41038439	          0.60736436	          0.53005547	         -0.46026983	          0.50993881	          0.45195991	         -0.41262457	          1.05124571	          0.09062527	         -0.31037093	          1.28498516	          0.13886186	         -0.34234920	          1.25336125	          0.07866696	         -0.25596480	          0.38243192	          0.55891958	         -0.38884116	          0.33713664	          0.32597368	         -0.38591998	          0.29783596	          0.38006870	         -0.47633552	          0.99618459	          1.56015516	         -0.48142957	          0.97240589	          1.53029391	         -0.16714934	          1.04129343	          1.49964902	         -0.28853229	          0.92326633	          1.56831280	         -0.33401150	          0.83268644	          1.48106941	         -0.12895408	          0.84829316	          1.41547611	         -0.08401469	          0.75055470	          1.37633719	         -0.06180241	          0.69585422	          1.32880730	         -0.04524951	          0.70632657	          1.29608661	         -0.12995078	          0.90622883	          1.47318146	         -0.55686435	          0.93901126	          1.40012351	         -0.58543577	          0.87060929	          1.34178047	         -0.62890292	          0.85684532	          1.27567891	         -0.65352035	          0.81947654	          1.25069509	         -0.57301813	          0.77311335	          1.25404084	         -0.02918711	          0.92757305	          1.18169495	         -0.09194657	          0.88888661	          1.14057561	         -0.05197639	          0.92529571	          1.23402932	         -0.62861430	          1.06157876	          1.26165660	         -0.49978304	          1.07051301	          1.19471151	         -0.52793216	
